<?xml version="1.0" standalone="no"?>
<!DOCTYPE svg PUBLIC "-//W3C//DTD SVG 20010904//EN"
 "http://www.w3.org/TR/2001/REC-SVG-20010904/DTD/svg10.dtd">
<svg version="1.0" xmlns="http://www.w3.org/2000/svg"
 width="266.000000pt" height="271.000000pt" viewBox="0 0 266.000000 271.000000"
 preserveAspectRatio="xMidYMid meet">

<g transform="translate(0.000000,271.000000) scale(0.100000,-0.100000)"
fill="#000000" stroke="none">
<path d="M1480 2048 l-1 -213 -335 -224 -334 -225 2 -200 3 -200 110 -68 c99
-61 115 -68 162 -68 l52 0 3 68 c3 62 5 67 26 68 24 1 45 -22 81 -94 21 -42
22 -42 77 -42 l55 0 -41 76 c-38 67 -41 77 -27 92 22 26 47 79 47 101 0 41
-32 101 -65 121 -27 16 -50 20 -128 20 -53 0 -98 3 -100 8 -3 4 143 106 324
226 l329 219 -2 215 -3 214 -109 59 c-60 32 -113 59 -118 59 -4 0 -8 -96 -8
-212z m-226 -894 c38 -37 5 -74 -65 -74 l-49 0 0 38 c0 21 3 42 7 45 13 14 92
7 107 -9z"/>
<path d="M1165 2054 c-99 -68 -298 -202 -442 -299 l-263 -175 0 -189 0 -188
112 -69 c62 -38 116 -70 120 -72 4 -2 8 87 8 197 l0 201 325 217 325 216 0
144 c0 78 -1 143 -2 142 -2 -1 -84 -57 -183 -125z"/>
<path d="M1733 1478 l-343 -232 0 -208 0 -207 -92 -63 c-51 -35 -109 -73 -128
-84 l-35 -22 -154 94 c-85 52 -155 93 -157 92 -1 -2 -4 -61 -5 -133 l-3 -129
164 -102 164 -102 237 159 c130 87 240 163 244 169 3 6 46 10 103 10 127 0
167 12 218 65 93 96 71 245 -44 312 -41 24 -60 28 -149 31 -57 3 -103 7 -102
11 0 3 97 69 215 146 l214 140 0 143 c0 78 -1 142 -2 141 -2 0 -157 -104 -345
-231z m128 -464 c30 -27 51 -81 44 -114 -3 -15 -19 -40 -35 -55 -24 -23 -41
-30 -90 -33 l-60 -4 0 117 0 117 60 -4 c40 -3 66 -11 81 -24z"/>
</g>
</svg>
